<?xml version="1.0" encoding="UTF-8" standalone="no"?>
<svg
   xmlns:dc="http://purl.org/dc/elements/1.1/"
   xmlns:cc="http://creativecommons.org/ns#"
   xmlns:rdf="http://www.w3.org/1999/02/22-rdf-syntax-ns#"
   xmlns:svg="http://www.w3.org/2000/svg"
   xmlns="http://www.w3.org/2000/svg"
   xmlns:sodipodi="http://sodipodi.sourceforge.net/DTD/sodipodi-0.dtd"
   xmlns:inkscape="http://www.inkscape.org/namespaces/inkscape"
   width="262.26123mm"
   height="126.67906mm"
   viewBox="0 0 262.26123 126.67906"
   version="1.1"
   id="svg8"
   inkscape:version="1.0.1 (3bc2e813f5, 2020-09-07)"
   sodipodi:docname="intuition.svg">
  <defs
     id="defs2" />
  <sodipodi:namedview
     id="base"
     pagecolor="#ffffff"
     bordercolor="#666666"
     borderopacity="1.0"
     inkscape:pageopacity="0.0"
     inkscape:pageshadow="2"
     inkscape:zoom="1"
     inkscape:cx="611.63731"
     inkscape:cy="452.61196"
     inkscape:document-units="mm"
     inkscape:current-layer="layer1"
     inkscape:document-rotation="0"
     showgrid="false"
     fit-margin-top="0"
     fit-margin-left="0"
     fit-margin-right="0"
     fit-margin-bottom="0"
     inkscape:window-width="3840"
     inkscape:window-height="2081"
     inkscape:window-x="-9"
     inkscape:window-y="-9"
     inkscape:window-maximized="1" />
  <metadata
     id="metadata5">
    <rdf:RDF>
      <cc:Work
         rdf:about="">
        <dc:format>image/svg+xml</dc:format>
        <dc:type
           rdf:resource="http://purl.org/dc/dcmitype/StillImage" />
        <dc:title></dc:title>
      </cc:Work>
    </rdf:RDF>
  </metadata>
  <g
     inkscape:label="Layer 1"
     inkscape:groupmode="layer"
     id="layer1"
     transform="translate(-10.964227,-63.021054)">
    <path
       style="fill:none;stroke:#000000;stroke-width:0.264583px;stroke-linecap:butt;stroke-linejoin:miter;stroke-opacity:1"
       d="m 68.974628,106.71169 c -0.213815,0.0195 -0.445646,-0.0296 -0.641448,0.0585 -0.960776,0.43226 -2.618703,2.27286 -3.04687,3.21807 -1.688158,3.72673 2.726732,4.23515 5.108665,1.81382 1.008848,-1.02553 1.438002,-3.4405 -0.125998,-4.25175 -1.159248,-0.60131 -3.475037,0.86258 -4.135043,1.74556"
       id="path22" />
    <path
       style="fill:none;stroke:#000000;stroke-width:0.264583px;stroke-linecap:butt;stroke-linejoin:miter;stroke-opacity:1"
       d="m 70.429339,100.42183 c -6.477228,-0.3086 -14.206389,7.23006 -15.051093,13.35986 -0.371044,2.69257 -0.171688,5.25664 2.00452,7.24554 6.403478,5.8523 16.08835,-0.31823 21.454108,-4.29076 3.156674,-2.33705 6.851729,-5.86048 5.864656,-10.33683 -0.308049,-1.39701 -1.179777,-2.66832 -2.164882,-3.70566 -5.854446,-6.164893 -14.147265,-4.437174 -20.812659,-0.81915 -0.916763,0.49763 -1.770116,1.10608 -2.623061,1.70656 -0.344781,0.24273 -1.506214,0.93651 -0.870534,1.51152"
       id="path24" />
    <path
       style="fill:none;stroke:#000000;stroke-width:0.264583px;stroke-linecap:butt;stroke-linejoin:miter;stroke-opacity:1"
       d="m 66.111027,89.061067 c -0.706356,0.100769 -1.427504,0.126709 -2.119067,0.302305 -2.949247,0.748847 -6.669511,3.283013 -8.968801,5.041643 -4.661778,3.565591 -8.882197,8.030095 -11.706404,13.203835 -1.202738,2.20332 -3.599217,7.93839 -3.390506,10.88293 0.39679,5.59798 2.855677,9.18527 7.055916,12.91128 7.58534,6.72892 18.954731,7.14149 28.223662,4.242 3.977783,-1.24432 7.764325,-3.06365 11.488769,-4.93437 6.591319,-3.31071 16.294204,-9.84942 19.438134,-16.929 1.25628,-2.82892 2.03984,-5.9373 2.16488,-9.0301 0.1017,-2.51532 -0.4941,-5.094112 -1.50053,-7.401556 -4.09224,-9.382363 -14.562114,-13.778849 -24.30625,-13.272098 -7.426311,0.38621 -13.572117,3.18139 -19.953581,6.689685 -2.302303,1.265722 -10.071372,6.349233 -10.022607,9.615199 0.004,0.26597 0.305451,0.43558 0.458177,0.65337"
       id="path26" />
    <path
       style="fill:none;stroke:#000000;stroke-width:0.264583px;stroke-linecap:butt;stroke-linejoin:miter;stroke-opacity:1"
       d="m 97.874099,147.34713 c -0.906999,0.31796 -0.667366,0.16279 -1.443254,0.71188 -0.394436,0.27914 -0.811747,0.53207 -1.16835,0.85815 -0.73914,0.67588 -1.670436,2.2621 -0.240543,2.92552 1.166122,0.54104 2.808457,-0.48753 3.596685,-1.01418 0.233587,-0.15607 1.919603,-1.3747 1.752523,-2.22339 -0.35558,-1.80626 -3.096596,-1.19719 -4.215223,-0.96542 -0.820949,0.17009 -1.223711,0.4325 -1.282893,0.29255 -0.05527,-0.1307 0.206179,-0.19504 0.309269,-0.29255"
       id="path28" />
    <path
       style="fill:none;stroke:#000000;stroke-width:0.264583px;stroke-linecap:butt;stroke-linejoin:miter;stroke-opacity:1"
       d="m 95.789397,139.40923 c -5.084588,1.60032 -9.863685,6.57669 -10.24024,12.09214 -0.576284,8.44088 9.231146,12.12652 16.219443,10.90243 4.47168,-0.78327 9.75525,-4.92319 11.40859,-9.17638 0.41869,-1.07706 0.70781,-2.27813 0.54981,-3.42285 -0.79991,-5.79533 -4.17568,-8.19005 -9.86224,-8.14269 -5.101192,0.0425 -10.739818,2.5036 -15.486363,4.18349 -0.811813,0.28731 -2.773797,0.71782 -3.562321,1.414"
       id="path30" />
    <path
       style="fill:none;stroke:#000000;stroke-width:0.264583px;stroke-linecap:butt;stroke-linejoin:miter;stroke-opacity:1"
       d="m 103.70439,129.677 c -10.074602,1.55204 -13.688164,1.37882 -24.0428,11.16573 -5.070416,4.79242 -12.418586,10.66289 -11.385682,17.56286 3.880681,25.92355 46.212912,6.72092 50.800302,3.96895 7.65528,-4.59238 15.28915,-12.38773 16.28817,-21.25876 1.01112,-8.97855 -11.58099,-6.0151 -16.1049,-5.14891"
       id="path32" />
    <path
       style="fill:none;stroke:#000000;stroke-width:0.264583px;stroke-linecap:butt;stroke-linejoin:miter;stroke-opacity:1"
       d="m 103.70439,129.677 c 0.74835,0.26655 1.45456,0.72096 2.24507,0.79965 0.79081,0.0787 1.56715,-0.28131 2.3596,-0.34131 1.14264,-0.0865 2.29148,-0.14657 3.43633,-0.0975 6.78317,0.29062 10.66964,2.51532 15.78417,6.66043 0.86281,0.69926 3.86837,2.81965 4.26104,4.14448 0.0853,0.28791 -0.27263,0.40522 -0.42381,0.48759"
       id="path38" />
    <path
       style="fill:none;stroke:#000000;stroke-width:0.264583px;stroke-linecap:butt;stroke-linejoin:miter;stroke-opacity:1"
       d="m 28.471841,78.207398 c -1.883942,7.927898 -1.919703,16.939834 -2.222156,25.013172 -0.243764,6.5068 -0.99463,28.61482 -1.053805,33.27289 -0.127042,10.00043 -0.0096,19.59767 1.156895,29.52823 0.68526,5.83398 1.892231,10.93282 3.390506,16.50967 0.248877,0.92637 0.549772,1.83819 0.847624,2.74999 0.0613,0.18764 0.121211,0.71141 0.229089,0.54609 0.119634,-0.18333 -0.09804,-0.42775 -0.171815,-0.63386 -0.319778,-0.89338 -0.671994,-1.77481 -1.007988,-2.66222"
       id="path42" />
    <path
       style="fill:none;stroke:#000000;stroke-width:0.264583px;stroke-linecap:butt;stroke-linejoin:miter;stroke-opacity:1"
       d="m 28.471841,78.207398 c -0.122182,0.17553 -0.236508,0.356796 -0.36654,0.526592 -2.402479,3.137128 -0.281112,0.282345 -2.508517,3.179062 -0.09859,0.128214 -0.410374,0.48818 -0.274906,0.399822 0.05845,-0.03812 3.023373,-2.612967 3.253053,-2.652469 0.648065,-0.111461 1.794526,2.667722 2.565786,3.071794"
       id="path44" />
    <path
       style="fill:none;stroke:#000000;stroke-width:0.264583px;stroke-linecap:butt;stroke-linejoin:miter;stroke-opacity:1"
       d="m 20.190303,185.42762 c 0.02673,-0.27304 -0.103535,-0.61538 0.08018,-0.81914 0.752048,-0.8341 3.381494,-0.80995 3.917408,-0.79964 2.973886,0.0572 5.938857,0.35591 8.91153,0.45833 43.4374,1.4965 -0.706368,-0.19121 30.056368,0.70212 5.342879,0.15516 10.680443,0.48922 16.024716,0.58511 16.617122,0.29813 33.192715,-0.55008 49.803765,-0.76064 13.39008,-0.16973 14.97051,0.13412 27.35313,-0.33156 2.51434,-0.0946 6.78592,-0.0287 9.43843,-1.14095"
       id="path46" />
    <path
       style="fill:none;stroke:#000000;stroke-width:0.264583px;stroke-linecap:butt;stroke-linejoin:miter;stroke-opacity:1"
       d="m 162.58005,178.59166 c 1.18959,3.02708 4.51764,4.37433 7.30791,5.49023 0.36337,0.14532 0.71998,0.30716 1.07672,0.46808 0.155,0.0699 0.30335,0.15399 0.45817,0.22429 0.0745,0.0338 0.29474,0.039 0.22909,0.0878 -0.39896,0.2963 -1.67771,0.51447 -2.00452,0.63387 -0.71342,0.26063 -2.33177,0.99444 -3.02396,1.49201 -0.54991,0.39529 -1.97709,1.50987 -2.26798,2.2429 -0.31408,0.79149 0.89637,-0.0588 0.95072,-0.0975"
       id="path48" />
    <path
       style="fill:none;stroke:#000000;stroke-width:0.264583px;stroke-linecap:butt;stroke-linejoin:miter;stroke-opacity:1"
       d="m 178.11223,182.98969 c 0.76009,2.17902 2.52609,3.47562 4.5474,4.29076"
       id="path50" />
    <path
       style="fill:none;stroke:#000000;stroke-width:0.264583px;stroke-linecap:butt;stroke-linejoin:miter;stroke-opacity:1"
       d="m 181.78909,183.0092 c -0.26726,0.12027 -0.65175,0.10905 -0.80181,0.36081 -0.40927,0.6867 -0.48159,1.52558 -0.76744,2.27215 -0.39036,1.01953 -0.83447,2.01768 -1.25999,3.02304 -0.19663,0.46459 -0.41855,0.82705 -0.29781,0.67286 0.11174,-0.14269 0.24287,-0.45912 0.32072,-0.63386"
       id="path52" />
    <path
       style="fill:none;stroke:#000000;stroke-width:0.264583px;stroke-linecap:butt;stroke-linejoin:miter;stroke-opacity:1"
       d="m 21.576287,64.964553 c 1.453478,0.151995 1.840109,1.727811 3.138508,2.184386"
       id="path54" />
    <path
       style="fill:none;stroke:#000000;stroke-width:0.264583px;stroke-linecap:butt;stroke-linejoin:miter;stroke-opacity:1"
       d="m 26.914041,63.092221 c -0.263451,0.412824 -0.600181,0.787177 -0.790354,1.238469 -0.216845,0.514588 -1.045658,3.618069 -1.225622,4.232249 -0.407878,1.39201 -0.896607,2.779392 -1.271439,4.183491"
       id="path56" />
    <path
       style="fill:none;stroke:#000000;stroke-width:0.264583px;stroke-linecap:butt;stroke-linejoin:miter;stroke-opacity:1"
       d="m 10.969505,133.09986 c 4.435303,-0.17711 8.880154,-0.4746 13.321477,-0.45833 6.749548,0.0247 13.492287,0.49352 20.239938,0.63386 7.325423,0.15237 14.656974,0.0895 21.981011,0.29255 4.421357,0.12258 13.238901,0.52389 17.88033,0.69238 2.981595,0.10823 5.965624,0.15247 8.945893,0.29255 9.721676,0.45693 19.390686,1.35909 29.094196,2.05761 5.85103,0.4212 11.6963,0.64592 17.55961,0.74113 3.00153,0.0487 6.74739,-0.27933 9.65606,0.5461"
       id="path62" />
    <path
       style="fill:none;stroke:#000000;stroke-width:0.264583px;stroke-linecap:butt;stroke-linejoin:miter;stroke-opacity:1"
       d="m 146.57824,135.51829 c 0.66607,-1.10443 1.72092,-1.87024 2.51997,-2.85726 1.21495,-1.50073 3.27442,-3.9008 3.45923,-6.01681 0.16396,-1.87712 -0.50373,-2.3037 -0.68726,-4.11523 -0.15815,-1.56102 0.57033,-3.61834 1.66089,-4.63207 3.48478,-3.23927 6.81107,-6.04275 11.24823,-7.31379 0.17308,-0.0496 2.12792,-0.65263 2.72615,-0.0878 0.0885,0.0836 -0.0382,0.24055 -0.0573,0.36081"
       id="path64" />
    <path
       style="fill:none;stroke:#000000;stroke-width:0.264583px;stroke-linecap:butt;stroke-linejoin:miter;stroke-opacity:1"
       d="m 164.74494,108.01842 c 2.307,0.0711 4.52248,0.7677 6.82682,0.98493 1.21695,0.11472 0.9186,-0.0232 1.72962,0.18528 0.0436,0.0112 0.16413,0.0248 0.126,0.0488 -2.15699,1.35487 -3.79044,2.19361 -5.63557,4.05672 -0.33267,0.3359 -0.66086,0.68251 -0.92781,1.07269 -0.77694,1.13558 -0.27966,1.60075 0.76745,1.02393"
       id="path66" />
    <path
       style="fill:none;stroke:#000000;stroke-width:0.264583px;stroke-linecap:butt;stroke-linejoin:miter;stroke-opacity:1"
       d="m 184.96196,90.748116 c 0.10691,-0.653365 0.24087,-1.302877 0.32073,-1.960097 0.0339,-0.278773 -0.0239,-1.113769 -0.0802,-0.838647 -0.39412,1.925677 -0.13619,3.554709 -0.0573,5.616993 0.074,1.934337 0.12882,3.869751 0.24054,5.802278 0.36316,6.282107 0.69301,12.679667 1.50053,18.928097 0.127,0.98269 0.32563,1.95531 0.5269,2.92552 0.0815,0.39295 0.20149,0.77726 0.32072,1.16046 0.0338,0.10852 0.14032,0.42568 0.13746,0.31205 -0.0533,-2.11128 -0.22127,-2.27703 -0.74454,-4.35902"
       id="path68" />
    <path
       style="fill:none;stroke:#000000;stroke-width:0.264583px;stroke-linecap:butt;stroke-linejoin:miter;stroke-opacity:1"
       d="m 184.96196,90.748116 c -0.294,-0.182033 -0.55423,-0.656291 -0.88198,-0.546097 -0.46477,0.156257 -0.59479,0.780542 -0.91636,1.150704 -0.22133,0.254778 -0.47836,0.476348 -0.71017,0.721628 -0.0358,0.0379 -0.10516,0.17713 -0.0916,0.126772 0.18586,-0.692232 1.20102,-2.348854 1.91289,-2.506194 1.1154,-0.246528 1.76437,1.182259 2.32525,1.687049 1.1516,1.036439 2.23082,1.34574 3.73413,1.34574"
       id="path70" />
    <path
       style="fill:none;stroke:#000000;stroke-width:0.264583px;stroke-linecap:butt;stroke-linejoin:miter;stroke-opacity:1"
       d="m 179.04004,123.36764 c -0.30259,-0.11302 -1.86141,-0.0267 -1.9358,-0.38032 -0.0409,-0.19457 0.15847,-0.41512 0.34363,-0.48759 1.60129,-0.62668 3.23855,-1.18282 4.91394,-1.57002 3.27,-0.75573 6.58032,-1.33688 9.89661,-1.85283 9.25512,-1.43993 12.39687,-1.39948 21.98101,-2.18439 7.59944,-0.62236 18.65711,-1.563 26.44823,-2.44768 0.70739,-0.0803 7.68427,-1.03886 9.50716,-1.38474 0.20029,-0.038 0.74754,-0.10968 0.57272,-0.21454 -0.866,-0.51944 -2.9365,-0.4326 -3.75705,-0.45833"
       id="path72" />
    <path
       style="fill:none;stroke:#000000;stroke-width:0.264583px;stroke-linecap:butt;stroke-linejoin:miter;stroke-opacity:1"
       d="m 249.20974,107.98917 c 0.51927,0.91341 0.90297,1.91855 1.5578,2.74023 1.18838,1.49116 3.53027,2.03291 5.29194,2.33067 0.4824,0.0815 0.97086,0.12258 1.45471,0.19503 0.27611,0.0413 0.54857,0.10507 0.82471,0.14628 0.0946,0.0141 0.36805,-0.0303 0.28637,0.0195 -2.70665,1.65037 0.56171,-0.82631 -2.42834,1.17996 -0.55914,0.37517 -2.17593,1.77747 -2.68033,2.2624 -0.40698,0.39126 -0.66623,1.06245 0.11454,0.68262"
       id="path74" />
    <path
       style="fill:none;stroke:#000000;stroke-width:0.264583px;stroke-linecap:butt;stroke-linejoin:miter;stroke-opacity:1"
       d="m 265.58954,114.05474 c 2.45771,1.25869 5.9531,2.85676 7.52554,5.23668"
       id="path76" />
    <path
       style="fill:none;stroke:#000000;stroke-width:0.264583px;stroke-linecap:butt;stroke-linejoin:miter;stroke-opacity:1"
       d="m 272.42783,114.74711 c -0.2291,-0.0715 -0.45276,-0.26553 -0.68726,-0.21453 -2.11174,0.45923 -3.9258,3.05309 -5.07431,4.63207 -0.20426,0.28079 -1.77337,2.43569 -1.90143,3.40335 -0.11133,0.8412 0.78211,-0.0463 0.87054,-0.10727"
       id="path78" />
    <path
       style="fill:none;stroke:#000000;stroke-width:0.264583px;stroke-linecap:butt;stroke-linejoin:miter;stroke-opacity:1"
       d="m 174.32088,82.634682 c 0.18,0.613293 0.358,1.373735 0.0916,1.989351 -0.0903,0.208563 -0.14843,-0.430882 -0.19473,-0.653367 -0.30535,-1.466416 -0.39566,-2.002592 -0.5269,-3.549626 -0.0446,-0.525386 -0.0535,-1.053187 -0.0802,-1.57978 -1.27646,-0.157287 -0.478,-0.214716 -1.24853,0.06826 -0.10243,0.03762 -0.40752,0.154742 -0.30927,0.107269 1.21366,-0.586439 2.42758,-1.07269 3.80286,-1.07269 1.25138,0 3.6198,0.866352 1.71816,2.36967 -1.18163,0.934131 -3.75969,1.781272 -5.2003,0.887407 -0.2504,-0.155366 0.48028,-0.372689 0.76745,-0.438828 0.5284,-0.121699 1.06908,-0.182032 1.60362,-0.273048"
       id="path80" />
    <path
       style="fill:none;stroke:#000000;stroke-width:0.264583px;stroke-linecap:butt;stroke-linejoin:miter;stroke-opacity:1"
       d="m 180.54056,73.107245 c -0.042,-0.178782 -0.084,-0.357563 -0.12599,-0.536345 -0.0267,-0.03251 -0.0898,-0.138486 -0.0802,-0.09752 0.42323,1.801574 0.17578,-0.96047 -0.53835,1.579779 -0.72492,2.578605 -0.79978,6.780964 0.24054,9.293394 0.26387,0.637254 0.61921,1.262049 1.11108,1.74556 1.03637,1.018762 2.80944,0.108301 2.93233,-1.199462"
       id="path82" />
    <path
       style="fill:none;stroke:#000000;stroke-width:0.264583px;stroke-linecap:butt;stroke-linejoin:miter;stroke-opacity:1"
       d="m 182.70545,77.515023 c 0.34363,0.325059 0.62177,0.737759 1.03089,0.975175 0.51145,0.296794 2.91325,1.334897 3.67687,0.858152"
       id="path84" />
    <path
       style="fill:none;stroke:#000000;stroke-width:0.264583px;stroke-linecap:butt;stroke-linejoin:miter;stroke-opacity:1"
       d="m 185.88977,76.315561 c -0.81137,1.060143 -3.87513,4.605425 -3.8945,5.792526 -0.006,0.35942 0.5625,-0.470176 0.74454,-0.780138"
       id="path86" />
    <path
       style="fill:none;stroke:#000000;stroke-width:0.264583px;stroke-linecap:butt;stroke-linejoin:miter;stroke-opacity:1"
       d="m 187.87139,70.766831 c 0.46581,0.653364 1.02763,1.247976 1.39743,1.960096 0.89039,1.714598 2.09998,4.770586 2.11907,6.826208 0.013,1.40371 -0.15009,2.831536 -0.56127,4.173739 -0.61853,2.01908 -2.22189,3.910168 -4.24958,2.545201"
       id="path88" />
    <path
       style="fill:none;stroke:#000000;stroke-width:0.264583px;stroke-linecap:butt;stroke-linejoin:miter;stroke-opacity:1"
       d="m 184.8016,70.766831 c 0.15351,0.478586 -0.0273,-1.930924 0.21764,-1.492015 0.85097,1.525217 0.93087,3.011789 1.25998,4.778346 0.53986,2.897735 0.96852,5.798201 1.35162,8.718042 0.066,0.502661 0.16505,1.00045 0.24055,1.501767 0.0273,0.180988 0.18409,0.678063 0.0573,0.546097 -0.25214,-0.262358 -0.5586,-1.275622 -0.59563,-1.374994"
       id="path90" />
    <path
       style="fill:none;stroke:#000000;stroke-width:0.264583px;stroke-linecap:butt;stroke-linejoin:miter;stroke-opacity:1"
       d="m 187.41321,79.34835 c 1.70287,-2.819879 1.23906,1.051732 3.08123,-0.292552"
       id="path92" />
    <path
       style="fill:none;stroke:#000000;stroke-width:0.264583px;stroke-linecap:butt;stroke-linejoin:miter;stroke-opacity:1"
       d="m 187.1268,118.33575 c 0.85782,-0.48301 1.82637,-0.80794 2.57347,-1.44903 0.23947,-0.2055 0.11503,-0.6211 0.19473,-0.92642 0.0885,-0.33896 0.20347,-0.67046 0.30926,-1.00443 0.39494,-1.24662 0.81046,-2.47398 1.12254,-3.74466 0.48002,-1.95452 0.79396,-3.92238 1.09962,-5.90954 0.42369,-2.75451 0.61148,-5.858531 1.99307,-8.347482 0.79561,-1.433309 1.83008,-2.809094 2.93233,-4.017711 1.42795,-1.565757 3.12645,-2.849348 5.15448,-3.520374 2.22471,-0.7361 5.36501,-0.418147 7.25064,1.092192 1.68839,1.352365 2.17515,3.677179 3.06978,5.538981 1.25045,2.602293 2.69357,5.090104 4.26104,7.508834 0.81269,1.25403 1.48836,2.86393 2.97815,3.46186 5.34632,2.14575 6.30084,-4.34511 10.64114,-4.203 1.02118,0.0334 1.89312,0.14523 2.80633,0.65337 1.70176,0.94692 3.39749,2.31103 4.78795,3.6764 1.54431,1.51645 2.84389,3.32053 4.81085,4.33952 2.63149,1.36326 5.63866,0.64304 8.32735,-0.14628"
       id="path114" />
    <path
       style="fill:none;stroke:#ff2a2a;stroke-width:0.264583px;stroke-linecap:butt;stroke-linejoin:miter;stroke-opacity:1"
       d="m 191.05189,118.16419 c 0.13364,-0.17878 0.30111,-0.33669 0.40091,-0.53634 0.17427,-0.34866 0.34337,-1.92692 0.46963,-2.39893 0.50727,-1.89647 0.90932,-3.81876 1.38598,-5.72426 0.18282,-0.73086 0.19941,-1.49697 0.36654,-2.23315 0.51977,-2.28947 1.14213,-4.56594 2.01598,-6.74819 0.33208,-0.829311 0.8206,-1.596851 1.15689,-2.41843 0.67721,-1.654418 1.32032,-3.383619 2.26798,-4.914868 1.40927,-2.27715 3.45695,-4.547111 5.66993,-6.065576 1.46664,-1.006353 6.97244,-1.720887 8.5908,-1.511517 1.81691,0.235056 3.75068,0.68343 5.18885,1.872332 1.27792,1.056423 2.04855,2.47631 3.12706,3.705656 1.16554,1.328558 2.32252,2.568663 3.41341,3.968951 2.25932,2.900125 4.55946,4.858032 5.96774,8.269462 1.02528,2.48363 1.78584,5.05659 2.68034,7.58685 0.35185,0.99527 0.97986,1.89996 1.37453,2.88651 0.0378,0.0944 0.59751,1.65386 0.68726,1.59928 0.57702,-0.35089 -0.58776,-1.47878 -0.88199,-1.77482"
       id="path116" />
    <path
       style="fill:none;stroke:#ff0000;stroke-width:0.264583px;stroke-linecap:butt;stroke-linejoin:miter;stroke-opacity:1"
       d="m 225.88475,74.866528 c -0.85725,-1.285515 -1.18005,-1.379564 -2.24507,-0.0195 -0.8931,1.140513 -2.17967,2.870367 -2.06179,4.476041 0.0513,0.698656 0.96526,0.07236 1.5578,-0.39982 1.15405,-0.919625 3.68464,-3.062221 2.4627,-4.836855 -0.006,-0.0082 -0.20687,0.64145 -0.26345,1.092192 -0.0978,0.778952 -0.19799,1.558083 -0.26346,2.340414 -0.27486,3.284683 -0.65068,6.790372 0.18328,10.024774 0.0637,0.246943 0.39647,1.379553 0.9278,1.433504 1.86974,0.189847 1.63116,-4.079248 1.39744,-5.002635 -0.20009,-0.790536 -0.59857,-1.46289 -1.29435,-1.891835 -0.32927,-0.202993 -0.67619,-0.16578 -1.03089,-0.16578 -0.13047,0 -0.49142,0.120394 -0.38945,0.03901 0.0914,-0.07296 0.20617,-0.110519 0.30926,-0.16578"
       id="path118" />
    <path
       style="fill:none;stroke:#ff0000;stroke-width:0.264583px;stroke-linecap:butt;stroke-linejoin:miter;stroke-opacity:1"
       d="m 228.18708,80.376254 c -0.23966,1.294365 -0.13243,2.600714 1.20272,3.276579 1.83169,0.927219 4.27848,-3.652137 2.89796,-4.749091 -0.65893,-0.523582 -1.18324,0.824288 -1.27144,1.160457 -0.3202,1.220441 -0.47179,2.523807 -0.30927,3.783669 0.0799,0.619286 0.4756,2.109866 0.97363,2.652469 0.6411,0.69847 1.94724,1.157925 2.80633,0.546097 0.20772,-0.147937 0.32072,-0.396571 0.48108,-0.594855"
       id="path120" />
    <path
       style="fill:none;stroke:#000000;stroke-width:0.264583px;stroke-linecap:butt;stroke-linejoin:miter;stroke-opacity:1"
       d="m 235.27736,77.265452 c -0.22909,0.370565 -0.50718,0.714997 -0.68726,1.111697 -1.34724,2.967792 -0.68987,9.065988 2.74906,10.395339 0.43751,0.169127 1.06832,0.251257 1.54634,0.126773 1.38878,-0.361654 -0.467,-2.440483 -1.20271,-2.467187 -0.90433,-0.03282 -1.8098,0.01299 -2.7147,0.0195"
       id="path134" />
    <path
       style="fill:none;stroke:#000000;stroke-width:0.264583px;stroke-linecap:butt;stroke-linejoin:miter;stroke-opacity:1"
       d="m 237.25898,81.917026 c 0.25046,-1.542098 -0.11485,-0.168574 0,0 0.34844,0.511471 0.94458,0.80002 1.40889,1.209214 0.2956,0.260517 0.57051,0.544219 0.87053,0.799643 0.2045,0.174101 0.42926,0.322942 0.64145,0.487584 0.14331,0.111194 0.52634,0.490943 0.42381,0.34131 -0.19602,-0.286089 -0.44261,-0.535001 -0.64144,-0.819145"
       id="path136" />
    <path
       style="fill:none;stroke:#000000;stroke-width:0.264583px;stroke-linecap:butt;stroke-linejoin:miter;stroke-opacity:1"
       d="m 240.99311,78.796474 c 0.29071,3.075422 0.52874,6.153544 0.76745,9.234885 0.072,0.929775 0.0719,1.880491 0.32072,2.779241 0.0379,0.13671 0.14827,0.458801 0.24054,0.351062 0.25827,-0.30154 0.14923,-2.184609 0.14891,-2.223394"
       id="path138" />
    <path
       style="fill:none;stroke:#000000;stroke-width:0.264583px;stroke-linecap:butt;stroke-linejoin:miter;stroke-opacity:1"
       d="m 240.99311,78.796474 c 0.66054,-0.763886 1.02149,-1.978609 1.98161,-2.291656 0.55733,-0.181714 0.93094,0.745765 1.24853,1.238469 1.36043,2.110497 1.44368,4.978839 1.23708,7.391808 -0.0618,0.72205 -0.17598,1.438896 -0.28636,2.155131 -0.031,0.201137 -0.0909,0.39674 -0.13745,0.594855 -0.007,0.02944 -0.0134,0.116472 -0.0229,0.08777 -0.0845,-0.25536 -0.13745,-0.520094 -0.20618,-0.78014"
       id="path140" />
    <path
       style="fill:none;stroke:#000000;stroke-width:0.264583px;stroke-linecap:butt;stroke-linejoin:miter;stroke-opacity:1"
       d="m 247.61376,63.681297 c -0.19473,-0.08451 -0.42338,-0.392128 -0.58417,-0.253542 -0.27973,0.24108 -0.26882,0.691568 -0.34364,1.053184 -0.17402,0.841047 -0.34733,1.688013 -0.4009,2.545202 -0.25822,4.131699 0.16503,11.764359 3.55087,14.783615 1.21017,1.079153 1.6275,1.11112 3.03541,1.170207 0.1597,0.0067 0.4829,-0.07578 0.42382,-0.22429 -0.0652,-0.163835 -0.93222,-1.014841 -0.95072,-1.033682"
       id="path142" />
    <path
       style="fill:none;stroke:#000000;stroke-width:0.264583px;stroke-linecap:butt;stroke-linejoin:miter;stroke-opacity:1"
       d="m 250.20246,71.941009 c 1.71323,0.262231 3.33279,0.913164 4.83376,1.765065"
       id="path144" />
    <path
       style="fill:none;stroke:#000000;stroke-width:0.264583px;stroke-linecap:butt;stroke-linejoin:miter;stroke-opacity:1"
       d="m 253.85641,69.415313 c -0.17563,0.191783 -0.41742,0.339465 -0.5269,0.575352 -0.20756,0.447222 -0.25427,0.953024 -0.4009,1.423752 -0.26963,0.865531 -0.54264,1.730494 -0.84763,2.584206 -0.17748,0.496777 -1.02919,2.44448 -1.16835,3.052292 -0.026,0.113559 0.18078,-0.153543 0.24054,-0.253545 0.1839,-0.307721 0.54143,-1.118492 0.71018,-1.492015"
       id="path146" />
  </g>
</svg>
